<svg width="113" height="122" viewBox="0 0 113 122" fill="none" xmlns="http://www.w3.org/2000/svg">
<path d="M30.8596 54.5048C30.8084 54.6607 32.537 54.8429 34.5822 54.804C35.324 54.8041 36.0048 54.8043 36.5973 54.8569L36.6507 54.4781L36.3178 54.4398L36.2826 54.794C36.7525 54.8502 37.2285 54.8245 37.6896 54.7181C37.2489 54.5432 36.7797 54.4509 36.3056 54.4459L36.2642 54.788L36.576 54.8905L36.6294 54.5118C35.9673 54.4276 35.2999 54.3915 34.6325 54.4039C33.374 54.3561 32.1137 54.3898 30.8596 54.5048Z" fill="#A86B62"/>
<path d="M29.0514 57.9649C29.9551 58.206 30.8985 58.2603 31.824 58.1245C32.7608 58.1586 33.6943 57.9946 34.5634 57.6432C33.643 57.5532 32.7155 57.5651 31.7977 57.6789C30.8742 57.6649 29.9522 57.7609 29.0514 57.9649Z" fill="#A86B62"/>
<path d="M56.2329 68.8832L50.7248 108.971L40.5812 97.2314L26.1156 103.582L42.6379 64.9213L56.2329 68.8832Z" fill="#2251FF"/>
<path d="M47.3468 72.2327C47.3468 72.2327 47.3197 72.3153 47.2654 72.4804C47.2111 72.6454 47.1267 72.9022 47.0852 73.2138C46.8712 73.8649 46.6979 74.7936 46.4338 75.9059C45.8814 78.1734 45.1127 81.3148 44.1805 84.7683C43.2482 88.2217 42.3451 91.3393 41.6674 93.5859C41.3056 94.6863 41.056 95.6002 40.8602 96.2573C40.7637 96.5508 40.6853 96.7892 40.625 96.9726C40.5861 97.0508 40.5587 97.1342 40.5436 97.2202C40.5863 97.1401 40.6148 97.0533 40.628 96.9635C40.6884 96.78 40.7698 96.5324 40.8663 96.239C41.0713 95.6154 41.3698 94.7075 41.7407 93.5795C42.4764 91.3418 43.4192 88.2271 44.3514 84.7737C45.2837 81.3202 46.0036 78.2034 46.5101 75.8904C46.7527 74.7507 46.9443 73.8279 47.0638 73.1864C47.1114 72.887 47.1531 72.6365 47.1951 72.447C47.237 72.2576 47.359 72.2266 47.3468 72.2327Z" fill="#2251FF"/>
<path d="M56.9281 70.262L62.7671 110.3L72.7991 98.4873L87.3254 104.717L70.4933 66.186L56.9281 70.262Z" fill="#2251FF"/>
<path d="M65.8408 73.5352C65.8408 73.5352 65.8839 73.6204 65.9334 73.779L66.1196 74.5109L66.79 77.2007C67.3549 79.4697 68.1553 82.5986 69.1007 86.0902C70.0461 89.5818 71.0081 92.652 71.6858 94.8869L72.5179 97.5486L72.7376 98.2712C72.784 98.4389 72.7966 98.5244 72.7844 98.5305C72.7405 98.4505 72.7034 98.3669 72.6735 98.2807L72.3989 97.5705C72.1643 96.9548 71.8798 96.0584 71.4784 94.9305C70.7182 92.699 69.7591 89.5891 68.7987 86.1433C67.8382 82.6976 67.0713 79.5594 66.5613 77.278C66.2943 76.174 66.1133 75.21 65.9855 74.5786L65.8543 73.8343C65.8329 73.736 65.8283 73.6349 65.8408 73.5352Z" fill="#2251FF"/>
<g opacity="0.3">
<path d="M59.4627 87.6798C59.4627 87.6798 62.603 88.9156 64.5788 87.5734C66.5546 86.2313 67.188 85.1083 68.4042 84.6546C69.6204 84.2008 71.7456 85.804 74.5064 85.3195C77.2672 84.835 77.9478 83.2906 77.9478 83.2906L74.2496 74.7884L58.4138 80.5161L59.4627 87.6798Z" fill="black"/>
</g>
<g opacity="0.3">
<path d="M35.7887 80.9916C35.7887 80.9916 37.7415 83.7372 40.1501 83.706C42.5586 83.6748 43.6734 83.0658 44.9415 83.3506C46.2096 83.6354 47.0897 86.0893 49.6893 87.2388C52.2888 88.3882 53.6922 87.4269 53.6922 87.4269L54.9642 78.2114L38.5421 74.2245L35.7887 80.9916Z" fill="black"/>
</g>
<path d="M53.7937 13.775L53.7295 13.7539C53.7577 13.8746 53.7785 13.9968 53.7921 14.12C53.7976 13.9795 53.8002 13.8788 53.7937 13.775Z" fill="#FF725E"/>
<path d="M84.6342 64.7778C83.4683 64.0896 82.085 63.2587 80.5243 62.3188C78.5625 61.1148 76.7904 60.0139 75.5141 59.1979C74.6172 58.6185 73.9682 58.1816 73.6834 57.966C73.4255 58.3486 73.1584 58.7283 72.8852 59.0957C71.8332 60.4914 70.6189 61.7569 69.2678 62.8655C68.8905 63.1784 68.5101 63.47 68.1114 63.7555C65.2206 65.8122 61.8676 67.125 58.3489 67.5779L57.9156 67.6285C58.2304 67.8199 58.4919 68.0876 58.6759 68.4069L58.7252 68.5349C59.028 69.269 59.1394 70.0679 59.0492 70.8568C59.001 71.7759 58.9471 72.7744 58.8782 73.8492C58.7984 75.2355 58.7061 76.5364 58.6435 77.654L58.5125 79.2267C58.4918 79.9727 58.4008 80.7152 58.2408 81.4441C58.1717 80.6999 58.1697 79.951 58.2347 79.2065C58.2809 77.8295 58.3769 75.9302 58.4996 73.8263C58.5686 72.782 58.6409 71.7895 58.7072 70.846C58.8203 70.0722 58.7297 69.2824 58.4445 68.5544C58.2474 68.1698 57.9343 67.857 57.5494 67.6605L57.0886 67.7021L56.3439 67.7418C54.0343 67.8305 51.7254 67.5483 49.5052 66.9058C49.5786 66.9299 49.6218 67.0458 49.7016 67.1431L49.7906 67.274C50.0777 67.7097 50.2623 68.2047 50.3308 68.7219C50.3508 68.8809 50.3626 69.0408 50.3663 69.201C50.3682 69.8806 50.266 70.5564 50.0632 71.2049C49.7616 72.122 49.4143 73.024 49.0154 74.0208C48.3224 75.7048 47.5404 77.3507 46.6727 78.9515C46.2726 79.6736 45.9513 80.2183 45.742 80.5458C46.019 80.5624 46.2934 80.6084 46.5607 80.6829C48.725 81.3945 50.1078 84.3592 52.3407 83.9349L52.5512 83.8822C54.088 83.4424 54.9651 81.4545 56.5792 81.2433C57.3088 81.1905 58.0329 81.4033 58.6179 81.8425C59.4454 82.52 60.3749 83.0623 61.372 83.4492C62.8571 83.8156 64.1055 83.0168 65.3315 81.9768C66.3871 80.9472 67.5548 80.0392 68.8129 79.27C69.3305 78.9926 69.9034 78.8338 70.49 78.8052C71.8391 78.7509 73.3256 79.453 74.5837 79.5212C74.8939 79.5567 75.2082 79.5284 75.5071 79.4379C75.806 79.3474 76.0832 79.1967 76.3216 78.9951C77.59 77.8573 76.8883 75.7263 77.2295 74.0703L76.8857 73.6015C76.0505 72.4327 74.9143 70.7888 73.6735 68.9683L71.9564 66.3713C71.5547 65.6471 71.0502 64.9849 70.4586 64.4053C70.2564 64.2314 70.0093 64.118 69.7457 64.078C69.482 64.0381 69.2125 64.0732 68.9679 64.1794C68.6205 64.3396 68.5421 64.578 68.4993 64.5538C68.5192 64.4435 68.5651 64.3396 68.6333 64.2507C68.7014 64.1617 68.7897 64.0903 68.891 64.0424C69.1376 63.9066 69.4161 63.8394 69.6975 63.8479C69.9789 63.8565 70.2529 63.9403 70.4909 64.0908L70.6376 64.139C71.2847 64.7106 71.8358 65.3824 72.2698 66.1288L74.0053 68.7319L74.0697 68.8141C75.2799 70.6041 76.3611 72.2299 77.1262 73.4265L77.3227 73.7249C77.3227 73.7249 77.3499 73.6424 77.3619 73.6057C77.445 73.3457 77.5732 73.1023 77.7406 72.8867C79.1957 71.1193 82.5227 72.4978 84.0881 70.8276C84.2419 70.6627 84.3689 70.4747 84.4644 70.2705C85.1035 69.0376 84.8004 67.3323 85.5707 66.1019C85.6755 65.9435 85.7955 65.7958 85.9292 65.6608C85.954 65.6309 85.9804 65.6023 86.0082 65.575L85.5798 65.3326L84.6342 64.7778ZM61.7492 75.6569C61.4659 74.2556 61.322 72.8297 61.3196 71.4C61.8528 72.7522 62.0015 74.2255 61.7492 75.6569ZM68.1075 76.9955C68.3144 77.5829 68.4552 78.1916 68.5271 78.8102C68.232 78.2575 67.9904 77.6779 67.8056 77.0792L66.2314 72.8422L64.6448 68.5809C64.4164 67.9774 64.2466 67.5049 64.1537 67.2C64.0609 66.8951 64.0392 66.8067 64.0636 66.7943C64.4023 67.3226 64.684 67.8853 64.9038 68.473C65.3783 69.5334 65.9918 71.0054 66.5786 72.6515L67.0725 73.9927C67.4803 75.1634 67.8172 76.1786 68.0617 76.9805L68.1075 76.9955ZM76.1714 65.4199C75.4242 64.5873 74.8274 63.6311 74.4076 62.5941C75.1522 63.4119 75.846 64.2747 76.4849 65.1775C77.2274 65.9936 77.9181 66.8554 78.553 67.7578C77.6129 67.1333 76.791 66.347 76.1257 65.4354L76.1714 65.4199Z" fill="#2251FF"/>
<path d="M92.055 51.2949C92.1881 50.9736 92.2532 50.6283 92.2463 50.2806C92.1625 48.4645 89.874 47.2345 89.8758 45.4364L88.1693 45.4342L85.0431 45.4225L79.9663 45.4097C79.2574 45.4457 78.5467 45.4128 77.8442 45.3116C78.3901 45.2058 78.9451 45.1535 79.5012 45.1552L79.956 45.132C81.2654 45.0747 83.0419 45.0186 85.069 45.0347C87.0962 45.0509 88.6472 45.0934 89.9296 45.1492C90.1434 43.6952 91.8648 42.8486 92.2833 41.4212C92.4508 40.6952 92.3387 39.9327 91.9693 39.2856C91.6994 38.7713 91.3594 38.297 90.9591 37.8762C89.9492 37.0031 89.1177 35.9429 88.5102 34.7541C88.3704 34.3566 88.2845 33.9421 88.2548 33.5218C88.1049 31.938 88.4642 30.227 87.5645 28.9454C87.3255 28.6281 87.0343 28.3536 86.7033 28.1339C85.3686 27.2174 83.4534 26.9535 82.4436 25.6358C80.9487 23.6301 82.4524 20.3239 80.7232 18.5054C80.6449 18.4228 80.5621 18.3446 80.475 18.2713C80.0942 17.9685 79.653 17.7506 79.181 17.6325C77.876 17.2745 76.2983 17.4062 74.9992 16.9993C74.5427 16.8667 74.1187 16.6408 73.754 16.3359C72.7368 15.4425 72.4128 13.8625 71.2225 13.1866C70.8485 12.9899 70.4319 12.8879 70.0093 12.8893C68.6111 12.8767 67.0636 13.689 65.6396 13.3529C65.3019 13.2823 64.9691 13.1899 64.6433 13.0761C64.3308 14.3046 63.8043 16.1843 63.184 18.2871C62.5967 20.5105 61.8778 22.697 61.0311 24.835C61.4941 22.582 62.0833 20.3567 62.7958 18.1697C63.4191 16.0576 64.0037 14.1869 64.3987 12.9855L64.2153 12.9252C63.6252 12.641 63.1233 12.2021 62.763 11.6551C62.3233 11.0627 61.7381 10.5939 61.0641 10.294C60.3901 9.99403 59.6501 9.87312 58.9156 9.94297C58.4496 10.0072 58.0033 10.1726 57.608 10.4276C56.4814 11.1649 55.2662 14.0883 54.5246 14.1494C54.3912 14.1505 54.259 14.1239 54.1363 14.0713C54.0137 14.0188 53.9033 13.9413 53.812 13.844C53.7819 13.9357 53.8159 14.0485 53.8195 14.1614C53.9331 15.0829 54.0878 17.0849 54.2226 19.4258C54.3573 21.7668 54.4013 23.5494 54.384 24.56C54.909 24.5395 55.4126 24.5222 55.9378 24.5323C57.5417 24.559 59.1377 24.7634 60.6965 25.1417C61.1 25.2743 61.5033 25.346 61.9007 25.4665C63.6434 26.0009 65.3113 26.7542 66.8645 27.7083L66.9379 27.7324L66.9952 27.5581C67.0852 27.2754 67.227 27.0119 67.4133 26.781C67.723 26.3646 68.1087 25.8715 68.5186 25.3356C69.0834 24.6067 69.7121 23.8074 70.4044 22.907C71.592 21.4276 72.6825 20.0891 73.4815 19.1425C73.8838 18.6032 74.3401 18.1062 74.8431 17.6594C74.5125 18.2449 74.1296 18.7992 73.699 19.3156C72.9551 20.3108 71.9075 21.6736 70.7199 23.153C69.5323 24.6323 68.4418 25.9709 67.6428 26.9175C67.3893 27.1612 67.226 27.4836 67.1795 27.8321L67.6386 28.1355C69.5574 29.4261 71.2581 31.0144 72.6767 32.8407C72.8209 33.0202 72.9468 33.1937 73.0788 33.3794C73.0674 33.135 73.0963 32.8905 73.1644 32.6555C73.2187 32.4711 73.3003 32.2958 73.4065 32.1355C73.6509 31.7244 73.9668 31.3602 74.3393 31.0602C74.9082 30.5969 75.5475 30.1364 76.2262 29.6482C77.5624 28.675 78.8443 27.8668 79.8068 27.3195C80.4494 26.9414 80.9337 26.6738 81.1805 26.5721C81.4274 26.4703 81.3695 26.4919 81.3848 26.5071C80.9441 26.902 80.4648 27.2517 79.9543 27.5509C79.0501 28.1682 77.808 29.0098 76.4565 29.9678C75.105 30.9258 73.7682 31.7463 73.4303 32.7429C73.3124 33.0544 73.2719 33.3898 73.3122 33.7203C73.4319 33.8816 73.5395 34.0491 73.647 34.2166C74.6232 35.6876 75.416 37.2723 76.0078 38.9357C76.2701 39.6729 76.4912 40.4242 76.6703 41.1859C76.9385 42.3266 77.1178 43.4864 77.2065 44.6548L77.2367 45.3049C77.2637 45.9337 77.2631 46.5534 77.2321 47.1732C77.1661 48.7393 76.9278 50.2934 76.5214 51.8072C76.3227 52.5508 76.0821 53.2826 75.8008 53.999C75.2789 55.3544 74.6204 56.6531 73.8354 57.875C73.8243 57.9187 73.8102 57.9616 73.7932 58.0034C74.0991 58.1548 74.656 58.47 75.5157 58.9457L75.7269 59.0761C77.0366 59.8218 78.8299 60.889 80.8283 62.105C82.8268 63.321 84.5803 64.3548 85.8324 65.2137L86.319 65.5261C87.0126 64.931 87.9177 64.5274 88.6817 63.9962C89.1528 63.6924 89.5387 63.2737 89.8033 62.7796C90.6448 61.0238 89.2052 59.1278 88.8892 57.2456C87.6599 56.7499 85.8097 55.9485 83.7361 55.0228C82.054 54.2665 80.5278 53.5615 79.3777 53.0106C78.6341 52.7116 77.9227 52.3381 77.2545 51.8958C79.4723 52.6624 81.6476 53.5473 83.7708 54.5465C85.3826 55.2695 86.8477 55.9443 87.9824 56.48L88.7104 56.8311C88.719 56.8001 88.729 56.7695 88.7406 56.7394C88.7078 56.384 88.7363 56.0255 88.8248 55.6797C89.2846 53.9103 91.4387 52.8605 92.055 51.2949ZM64.5833 20.8C65.1794 19.8045 65.8598 18.8621 66.6171 17.9831C66.1918 19.0731 65.6153 20.098 64.9048 21.0276C64.3085 22.0316 63.5733 22.9463 62.7209 23.7444C63.2551 22.7107 63.8782 21.7255 64.5833 20.8ZM73.2256 24.4951C72.3668 25.2143 71.401 25.7951 70.363 26.2164C71.182 25.4709 72.0581 24.7906 72.9832 24.1817C73.8253 23.4645 74.7196 22.8108 75.6586 22.2261C74.9713 23.1161 74.147 23.8912 73.2166 24.5226L73.2256 24.4951ZM78.8135 30.7732C79.485 30.3515 80.2292 30.0585 81.008 29.9095C80.4007 30.4059 79.726 30.8136 79.0042 31.1205C78.3417 31.5461 77.6213 31.874 76.8651 32.0939C77.4217 31.5413 78.0803 31.1021 78.8045 30.8007L78.8135 30.7732ZM76.5709 38.5212C77.0291 38.2265 77.5086 37.9664 78.0056 37.743C78.9165 37.2905 80.1871 36.7022 81.6071 36.0615C83.0271 35.4207 84.3161 34.8689 85.267 34.4804C85.7609 34.2495 86.281 34.0793 86.8158 33.9734C86.8158 33.9734 86.6362 34.1176 86.289 34.3083L85.375 34.77C84.4549 35.2194 83.1783 35.8261 81.7705 36.4607C80.3627 37.0953 79.0584 37.6624 78.1106 38.0418C77.617 38.2735 77.0969 38.4438 76.5618 38.5488L76.5709 38.5212Z" fill="#2251FF"/>
<path d="M48.6425 73.8576C49.0354 72.8791 49.4254 71.9403 49.7058 71.0874C49.9767 70.3364 50.0939 69.5386 50.0503 68.7414C50.0108 68.2281 49.8675 67.7281 49.6291 67.2717C49.5499 67.1246 49.4606 66.9832 49.3618 66.8485C47.9378 66.4256 46.5623 65.8541 45.258 65.1435L45.1754 65.1163C45.0512 65.3397 44.7812 65.759 44.4018 66.2948C44.3681 66.3495 44.3306 66.4017 44.2895 66.451C43.7128 67.2776 42.9386 68.3035 42.0304 69.4275C41.1222 70.5516 40.1559 71.6668 39.4752 72.4084C39.1298 72.8294 38.7358 73.2081 38.3014 73.5366C38.3014 73.5366 38.3527 73.3807 38.5228 73.1724C39.0054 72.508 40.26 70.9795 41.7362 69.1479C43.3126 67.1968 44.6245 65.5246 45.1171 65.0464C44.6031 64.7554 44.0951 64.4461 43.6022 64.1215C43.0387 64.7283 42.445 65.3064 41.8234 65.8536C41.1488 66.5362 40.39 67.1301 39.5655 67.6212C40.13 66.8463 40.7991 66.1532 41.5536 65.5616C42.1589 65.0188 42.7187 64.5525 43.1295 64.2302L43.4369 64.0061C41.916 62.9785 40.5341 61.7591 39.3252 60.3779C39.0492 60.0738 38.7884 59.7543 38.5306 59.4256C37.402 57.9853 36.4629 56.4061 35.7364 54.7266C35.5669 54.3457 35.4097 53.9586 35.2676 53.5562C34.6554 51.8925 34.2525 50.159 34.0681 48.3958C34.0396 48.1426 34.0111 47.8893 33.9917 47.639C33.9724 47.3888 33.9522 46.9248 33.9356 46.6044C33.8995 44.9288 34.0545 43.2546 34.3975 41.6142C34.4548 41.44 34.5091 41.2749 34.5664 41.1006C34.3174 41.2516 34.0341 41.3368 33.7431 41.3482L33.0988 41.299C31.5262 41.1521 29.9736 40.8392 28.4669 40.3655C26.768 39.8345 25.1036 39.199 23.4831 38.4626C22.5992 38.0602 21.9935 37.7696 21.7304 37.6119C21.5928 37.5667 21.5103 37.5395 21.5314 37.4754C22.2472 37.6572 22.9451 37.9037 23.6164 38.2117L25.243 38.8278C26.2367 39.2054 27.371 39.6189 28.6089 39.9955L29.636 40.3332C30.9807 40.7162 32.3569 40.9783 33.7483 41.1162C34.0297 41.1317 34.3095 41.0648 34.5535 40.9236C34.5948 40.8942 34.6308 40.8579 34.6599 40.8164C34.8076 40.367 34.9155 39.8842 35.0542 39.4623C34.3387 39.1661 33.2774 38.685 31.9957 38.0706C30.6851 37.5111 29.4284 36.8326 28.2417 36.0436C29.6004 36.4706 30.9144 37.0286 32.1652 37.7097L33.45 38.3455L35.1326 39.2239C35.6346 37.7537 36.2931 36.3417 37.0967 35.0122L36.751 34.8274C35.4443 34.086 34.183 33.2675 32.9738 32.3762C31.7598 31.4928 30.6018 30.535 29.5063 29.5085L29.4421 29.4874C28.9804 29.1042 28.5684 28.6649 28.2156 28.1797C28.7369 28.5177 29.2259 28.903 29.6765 29.3307C30.5648 30.0598 31.796 31.0438 33.2015 32.0852C34.607 33.1266 35.9263 33.9973 36.8935 34.61L37.221 34.8193C37.4576 34.4398 37.7033 34.0633 37.9644 33.702L37.9002 33.6809C37.4588 33.2309 36.9068 32.6226 36.3331 31.9259C35.5283 31.0705 34.8463 30.1075 34.3065 29.0645C34.7778 29.4519 35.1982 29.8974 35.5575 30.3904L36.6312 31.6682L38.1315 33.5029C39.2158 32.0257 40.481 30.6903 41.8977 29.528L42.1502 29.3163C41.6902 29.0066 41.2668 28.6458 40.888 28.2408L40.1217 27.4808C39.5178 26.8757 38.8342 26.1733 38.1166 25.3886C37.0526 24.236 36.1354 23.1621 35.5033 22.3648C35.1304 21.9568 34.804 21.5087 34.5301 21.0286C34.5301 21.0286 34.7842 21.2138 35.1398 21.5848C35.8266 22.3086 37.0165 23.6347 38.4025 25.1371C40.4816 27.406 42.2047 29.2123 42.1655 29.3315C42.5063 29.0676 42.8441 28.8129 43.1881 28.5703C44.3817 27.7352 45.6549 27.0203 46.9893 26.4361L46.8071 25.9392C46.4367 24.9333 45.976 23.5217 45.5483 21.9482C45.1206 20.3748 44.8155 18.9229 44.6219 17.8735C44.5132 17.3326 44.4385 16.7854 44.3985 16.2351C44.4135 16.1892 44.4226 16.1617 44.4256 16.1525C44.6423 16.6867 44.8002 17.2429 44.8964 17.8113C45.154 18.8513 45.5079 20.2785 45.9386 21.8429C46.3014 23.2121 46.6575 24.447 46.9455 25.4258C46.9918 25.563 47.0321 25.7185 47.0693 25.8527L47.2118 26.3466L47.3276 26.3034C47.7299 26.1308 48.1261 25.9766 48.501 25.8254C48.258 25.0083 48.07 24.1758 47.9382 23.3336C47.6959 22.5047 47.547 21.6514 47.4943 20.7894C47.9357 21.548 48.2194 22.3879 48.3287 23.2587C48.4284 23.759 48.4975 24.2288 48.5388 24.6286C48.561 24.8391 48.5801 25.0283 48.5869 25.1932C48.5993 25.3947 48.594 25.597 48.5711 25.7977L48.6169 25.8128C50.3288 25.2336 52.1069 24.8724 53.9091 24.7379L54.0343 24.7282L54.2021 24.7123C54.107 23.8579 53.9846 22.2831 53.8732 20.4275C53.8507 20.1559 53.8374 19.8873 53.8179 19.6065C53.6657 16.7314 53.6071 14.3444 53.6723 13.8678C52.8048 12.983 51.8963 11.0482 50.2535 10.945C48.8855 10.8713 48.1721 11.094 47.6738 11.6822C46.9657 12.7358 46.3346 13.8393 45.7854 14.9839C45.6244 15.249 45.4059 15.4747 45.1462 15.6443C44.8864 15.8138 44.5919 15.923 44.2844 15.9638C43.7785 16.042 43.2622 16.0188 42.7654 15.8955C42.2685 15.7723 41.8012 15.5515 41.3905 15.2461C40.0552 14.2075 37.9439 14.5092 36.3507 15.3369C36.0812 15.4776 35.8217 15.6368 35.5741 15.8132C34.3627 16.6852 34.0551 18.3625 33.4716 19.7355C33.2088 20.4585 32.7467 21.0922 32.1389 21.5635C31.1137 22.0733 30.0132 22.4148 28.8796 22.5751C28.2507 22.7205 27.6914 23.0786 27.2963 23.589C26.5222 24.6759 26.9469 26.2586 26.6284 27.5054C26.5478 27.8449 26.3915 28.1617 26.1713 28.4323C25.0744 29.6976 22.8159 29.0871 21.5872 30.2278C21.1541 30.6398 20.8962 31.2028 20.8671 31.7999C20.7295 33.2383 21.4023 35.0245 21.0666 36.5401C21.0054 36.8573 20.9041 37.1655 20.765 37.4571C20.241 38.4636 19.3622 39.3129 18.8047 40.3287C18.4904 40.9093 18.348 41.5675 18.3942 42.2261C18.3636 42.6383 18.4761 43.0484 18.7127 43.3872C18.9494 43.7261 19.2957 43.9729 19.6932 44.0861L19.5378 43.4151C20.8033 43.8312 21.2436 45.4901 20.9589 46.7887C20.7296 47.6247 20.3846 48.4245 19.9337 49.1649C19.7065 49.578 19.4671 50.0277 19.2703 50.4102C18.9304 50.9882 18.7366 51.6405 18.7058 52.3104C18.6751 52.9803 18.8082 53.6475 19.0937 54.2543L19.1643 54.3487C19.9504 55.4811 21.5426 55.8928 22.329 57.0863C22.7419 57.8447 22.8669 58.7266 22.6811 59.5699C22.3359 61.7632 20.9812 64.1835 22.4407 65.7405C22.5936 65.9046 22.7701 66.0448 22.9645 66.1566C24.5987 67.1513 27.3099 66.4777 28.4156 68.1217C28.5449 68.3193 28.6416 68.5364 28.7022 68.7647C29.0243 69.8868 28.7335 71.2037 29.3238 72.2209C29.9141 73.2382 31.0019 73.484 32.2022 73.6043C33.7934 73.7718 35.5667 73.6943 36.6275 74.7951C36.787 74.9628 36.9233 75.1512 37.0328 75.3552C37.9952 77.0333 37.3739 79.6338 38.8781 80.9312C39.1458 81.1688 39.4638 81.3428 39.8082 81.4402C41.5199 81.9522 43.7403 80.7006 45.7249 80.7841C45.8425 80.4265 46.1729 79.8542 46.5422 79.0712C47.0214 77.552 47.8355 75.8177 48.6425 73.8576ZM41.2492 26.2459C40.7368 25.4696 40.3769 24.6029 40.1886 23.692C40.7354 24.4309 41.207 25.2225 41.5965 26.0552C42.0989 26.8303 42.5264 27.6514 42.8734 28.5074C42.1941 27.8629 41.6429 27.0955 41.2492 26.2459ZM33.4719 47.4275C32.6135 47.5341 31.7439 47.5119 30.892 47.3617C30.0268 47.3341 29.1703 47.1792 28.3502 46.902C29.2083 46.7878 30.079 46.81 30.9301 46.9677C31.8052 46.9945 32.6713 47.1525 33.4994 47.4365L33.4719 47.4275ZM20.378 48.8029C21.0095 48.6926 21.6508 48.648 22.2915 48.6699C23.4728 48.6315 25.1058 48.579 26.9158 48.4831C28.7257 48.3871 30.3554 48.2828 31.5304 48.2017C32.1701 48.1206 32.8162 48.1016 33.4596 48.1449C32.8371 48.3435 32.1947 48.4731 31.544 48.5313C30.769 48.6322 29.7833 48.7247 28.6969 48.8146L26.9206 48.9318C25.1137 49.0186 23.4653 49.0253 22.2776 48.9905C21.7433 48.9774 21.2731 48.9549 20.9738 48.9378C20.7785 48.9291 20.5862 48.8865 20.4055 48.8119L20.378 48.8029ZM22.788 59.5847C23.3893 59.2652 24.0175 58.9991 24.6653 58.7894L26.2777 58.1814L29.2652 57.1312L31.829 56.2568C32.6094 55.9849 33.341 55.7377 33.8897 55.5218C34.4981 55.2545 35.0335 54.8451 35.4509 54.3279C35.4153 54.513 35.3306 54.6852 35.2056 54.8265C35.0392 55.0397 34.8437 55.2285 34.6248 55.3875C34.4304 55.5327 34.2247 55.6621 34.0098 55.7747C33.3399 56.0906 32.6519 56.3666 31.9494 56.6012L29.3949 57.5092C27.5903 58.1455 25.9562 58.6956 24.7428 59.0791C24.1204 59.3185 23.4744 59.491 22.8155 59.5937L22.788 59.5847ZM30.8913 67.3301C30.3868 67.7315 29.8455 68.0843 29.2746 68.3838C29.7038 67.9022 30.1865 67.4711 30.7133 67.0988L32.6182 65.6012C33.1751 65.1746 33.7594 64.7265 34.3925 64.2538C35.8289 63.1611 37.2018 62.2 38.1056 61.4911C38.2966 61.3355 38.4388 61.1283 38.5153 60.8941C38.5524 60.7169 38.5389 60.5329 38.4765 60.3631C38.3562 60.0797 38.1454 60.0408 38.1575 60.0041C38.1696 59.9675 38.4046 59.9634 38.6105 60.2954C38.7263 60.4909 38.7694 60.7209 38.7322 60.9451L38.693 61.0643C38.6182 61.2984 38.4857 61.5099 38.3078 61.6795C37.3892 62.4953 36.0774 63.4562 34.644 64.5397C33.2105 65.6232 31.902 66.636 30.9248 67.3208L30.8913 67.3301Z" fill="#2251FF"/>
<path d="M74.9615 46.5902C74.8655 50.4287 73.6329 54.1523 71.4196 57.2899C69.2063 60.4274 66.112 62.8378 62.5282 64.216C58.9444 65.5941 55.0323 65.878 51.2871 65.0318C47.5419 64.1856 44.1319 62.2472 41.4888 59.4621C38.8457 56.677 37.0883 53.1704 36.4391 49.386C35.7898 45.6017 36.2779 41.7098 37.8415 38.203C39.4052 34.6961 41.9741 31.732 45.2231 29.6859C48.4721 27.6397 52.2551 26.6034 56.0933 26.7082C61.2291 26.851 66.0988 29.0238 69.6355 32.7505C73.1723 36.4773 75.0875 41.454 74.9615 46.5902Z" fill="white"/>
<path d="M45.6837 46.373L48.5233 43.5161L54.0383 48.3781L64.7964 37.9423L67.4578 40.7889L53.6609 53.8838L45.6837 46.373Z" fill="#2251FF"/>
<path d="M71.3517 50.0556C71.358 50.1981 71.3453 50.3409 71.3138 50.4801C71.2582 50.8847 71.1741 51.285 71.0622 51.6778C70.6804 53.1497 70.0591 54.5487 69.2231 55.8188C67.9977 57.7166 66.4036 59.3488 64.5353 60.6187C62.2496 62.2079 59.5898 63.175 56.8172 63.4251C54.0446 63.6752 51.2547 63.1995 48.7215 62.0449C46.6525 61.1374 44.7821 59.8318 43.2169 58.2026C42.159 57.1139 41.2802 55.8646 40.613 54.501C40.4276 54.1232 40.2709 53.732 40.1442 53.3307C40.0484 53.0655 40.0021 52.9283 40.0234 52.9251C40.894 54.7635 42.0555 56.4493 43.463 57.9177C45.0238 59.4726 46.8684 60.7138 48.8967 61.5741C51.3625 62.6793 54.0709 63.1329 56.7623 62.8915C59.4537 62.6501 62.0381 61.7218 64.268 60.1954C66.1035 58.971 67.6852 57.4034 68.926 55.5789C70.0314 53.8829 70.8508 52.017 71.3517 50.0556Z" fill="#2251FF"/>
<path d="M39.3138 42.1031C39.3055 41.9573 39.3193 41.8111 39.3548 41.6695C39.4078 41.2576 39.4908 40.8502 39.6032 40.4504C40.0045 38.9687 40.6453 37.5627 41.5003 36.2878C42.7695 34.3882 44.4034 32.7596 46.3071 31.4966C47.4501 30.7416 48.677 30.1219 49.9629 29.6499C51.3252 29.1512 52.7459 28.8294 54.1902 28.6924C56.7277 28.5118 59.2742 28.8834 61.6542 29.7818C64.0343 30.6801 66.1912 32.0837 67.9766 33.896C69.0601 34.9827 69.962 36.2365 70.6477 37.6094C70.8354 37.9884 70.9951 38.3806 71.1257 38.7828C71.2306 39.051 71.2739 39.1974 71.2525 39.2005C70.3595 37.3436 69.1664 35.6466 67.7213 34.1779C66.1209 32.6254 64.2409 31.39 62.1808 30.5372C59.6678 29.4745 56.9377 29.0263 54.2168 29.2296C52.8174 29.3687 51.4399 29.6767 50.1146 30.1469C48.8861 30.6019 47.7112 31.1902 46.611 31.9014C44.7381 33.1102 43.1194 34.6734 41.8461 36.5031C40.9801 37.7332 40.3053 39.0874 39.8446 40.5196C39.4733 41.5255 39.3627 42.109 39.3138 42.1031Z" fill="#2251FF"/>
<path d="M78.1264 37.9965C79.0742 37.6172 80.3663 37.0563 81.7863 36.4155C83.2063 35.7747 84.4799 35.1772 85.3908 34.7248L86.3048 34.2631C86.652 34.0724 86.8439 33.9526 86.8316 33.9282C86.2967 34.0341 85.7767 34.2043 85.2828 34.4352C84.3319 34.8237 83.0429 35.3755 81.6229 36.0162C80.2029 36.657 78.9323 37.2453 78.0213 37.6978C77.5244 37.9211 77.0449 38.1813 76.5867 38.476C77.1174 38.3791 77.6344 38.2181 78.1264 37.9965Z" fill="#2251FF"/>
<path d="M79.911 45.1466L79.4562 45.1699C78.9001 45.1681 78.3451 45.2205 77.7992 45.3262C78.5017 45.4275 79.2124 45.4604 79.9212 45.4244L84.9981 45.4372L88.1242 45.4489L89.8308 45.451C89.8279 45.3838 89.8297 45.3165 89.836 45.2495C89.8411 45.2175 89.8512 45.1865 89.8662 45.1578C88.5838 45.102 86.8556 45.0419 85.0057 45.0434C83.1557 45.0448 81.2264 45.0711 79.911 45.1466Z" fill="#2251FF"/>
<path d="M83.7714 54.546C81.6091 53.4979 79.3872 52.5773 77.1172 51.7891C77.7916 52.2201 78.5032 52.5901 79.2434 52.8946C80.3935 53.4455 81.8831 54.1385 83.6019 54.9069C85.6755 55.8326 87.5257 56.634 88.755 57.1296C88.7339 57.031 88.7192 56.9311 88.711 56.8306L87.983 56.4795C86.8818 55.9345 85.4167 55.2597 83.7714 54.546Z" fill="#2251FF"/>
<path d="M80.7271 61.9789C78.7654 60.7749 76.966 59.726 75.6257 58.95L75.4145 58.8196C74.5548 58.3438 73.9979 58.0286 73.692 57.8772C73.709 57.8354 73.7231 57.7925 73.7342 57.7488C74.5192 56.5269 75.1777 55.2282 75.6996 53.8729C75.9809 53.1564 76.2215 52.4247 76.4202 51.6811C76.8266 50.1672 77.065 48.6132 77.1309 47.0471C77.1619 46.4272 77.1625 45.8075 77.1355 45.1787L77.1053 44.5286C77.0166 43.3602 76.8373 42.2005 76.5691 41.0598C76.39 40.298 76.1689 39.5468 75.9066 38.8095C75.3148 37.1462 74.522 35.5614 73.5458 34.0904C73.4383 33.9229 73.3307 33.7555 73.211 33.5942C73.1707 33.2636 73.2112 32.9282 73.3291 32.6168C73.6578 31.6172 75.0253 30.827 76.3553 29.8416C77.6854 28.8562 78.9764 28.0511 79.8531 27.4248C80.3636 27.1255 80.8429 26.7758 81.2836 26.381C81.2836 26.381 81.2103 26.3568 81.0794 26.4459C80.9484 26.535 80.3482 26.8152 79.7056 27.1934C78.7615 27.7467 77.4888 28.5579 76.125 29.522C75.4463 30.0102 74.7979 30.4677 74.2381 30.934C73.8656 31.2341 73.5497 31.5983 73.3053 32.0094C73.1991 32.1697 73.1175 32.3449 73.0632 32.5294C72.9951 32.7643 72.9662 33.0089 72.9776 33.2532C72.8456 33.0675 72.7197 32.894 72.5755 32.7145C71.1569 30.8883 69.4562 29.3 67.5374 28.0094L67.0783 27.706C67.1248 27.3575 67.2882 27.035 67.5416 26.7913C68.3406 25.8447 69.4403 24.5092 70.6187 23.0268C71.7971 21.5445 72.8539 20.1847 73.5978 19.1895C74.0284 18.6731 74.4113 18.1187 74.7419 17.5332C74.2389 17.9801 73.7826 18.477 73.3803 19.0164C72.5813 19.9629 71.4908 21.3015 70.3032 22.7809C69.623 23.6445 68.9943 24.4439 68.4174 25.2094C68.0075 25.7454 67.6218 26.2384 67.3121 26.6549C67.1258 26.8858 66.984 27.1493 66.894 27.432L66.8367 27.6062L66.7633 27.5821C65.2101 26.6281 63.5422 25.8748 61.7995 25.3403C61.4051 25.2106 61.02 25.084 60.5953 25.0155C59.0365 24.6372 57.4405 24.4328 55.8366 24.4061C55.3206 24.3991 54.817 24.4164 54.2828 24.4339C54.3001 23.4233 54.2221 21.5278 54.1214 19.2997C54.0207 17.0716 53.8319 14.9568 53.7183 14.0353C53.7047 13.9121 53.6838 13.7899 53.6557 13.6692L53.5729 13.581C53.5077 14.0575 53.5663 16.4445 53.7185 19.3197C53.738 19.6004 53.7513 19.869 53.7738 20.1406C53.876 21.9933 54.0076 23.571 54.1027 24.4254L53.9348 24.4414L53.8097 24.451C52.0075 24.5856 50.2294 24.9467 48.5175 25.5259L48.4716 25.5108C48.4945 25.3102 48.4998 25.1079 48.4875 24.9063C48.4807 24.7415 48.4616 24.5523 48.4394 24.3418C48.3981 23.942 48.329 23.4721 48.2293 22.9719C48.12 22.101 47.8362 21.2612 47.3949 20.5026C47.4476 21.3645 47.5965 22.2179 47.8388 23.0468C47.9706 23.889 48.1586 24.7215 48.4015 25.5386C47.99 25.6777 47.5938 25.8319 47.2282 26.0166L47.1124 26.0598L46.9699 25.5658C46.9327 25.4317 46.8924 25.2761 46.846 25.1389C46.5581 24.1602 46.211 22.8977 45.8392 21.556C45.4085 19.9917 45.0546 18.5644 44.797 17.5245C44.7008 16.9561 44.5429 16.3999 44.3262 15.8657C44.3262 15.8657 44.3262 15.8657 44.299 15.9482C44.3391 16.4985 44.4137 17.0457 44.5225 17.5867C44.707 18.6635 45.0303 20.0909 45.4489 21.6614C45.8674 23.2319 46.3373 24.6465 46.7077 25.6524L46.8899 26.1492C45.5555 26.7335 44.2822 27.4484 43.0887 28.2834C42.7447 28.526 42.4069 28.7808 42.0661 29.0447C42.1053 28.9255 40.373 27.1162 38.3031 24.8503C36.9081 23.3754 35.7272 22.0217 35.0404 21.298C34.6848 20.927 34.461 20.7112 34.4306 20.7418C34.7046 21.2218 35.031 21.67 35.4038 22.078C36.036 22.8752 36.9532 23.9491 38.0172 25.1018C38.7714 25.8985 39.4214 26.5797 40.0223 27.1939L40.7886 27.954C41.1674 28.359 41.5908 28.7198 42.0508 29.0295L41.7982 29.2412C40.3816 30.4035 39.1163 31.7389 38.0321 33.2161L36.5318 31.3814L35.458 30.1036C35.0987 29.6106 34.6784 29.165 34.2071 28.7777C34.7469 29.8207 35.4289 30.7837 36.2336 31.639C36.8074 32.3358 37.3593 32.9441 37.8008 33.3941L37.865 33.4152C37.6039 33.7765 37.3582 34.153 37.1216 34.5325L36.7941 34.3232C35.8299 33.7013 34.5106 32.8306 33.1021 31.7984C31.6936 30.7662 30.4654 29.7729 29.5771 29.0439C29.1265 28.6161 28.6375 28.2308 28.1162 27.8929C28.469 28.3781 28.881 28.8174 29.3426 29.2006L29.4068 29.2217C30.5024 30.2482 31.6604 31.2059 32.8743 32.0893C34.0836 32.9807 35.3449 33.7992 36.6515 34.5405L36.9972 34.7253C36.1936 36.0549 35.5352 37.4669 35.0332 38.9371L33.3506 38.0586L32.0658 37.4228C30.8149 36.742 29.5009 36.184 28.1422 35.7568C29.329 36.5457 30.5856 37.2242 31.8963 37.7837C33.1321 38.3831 34.2393 38.8793 34.9548 39.1755C34.8071 39.6249 34.6533 40.0926 34.5604 40.5295C34.5314 40.5711 34.4954 40.6074 34.454 40.6368C34.2101 40.778 33.9303 40.8449 33.6489 40.8294C32.2575 40.6914 30.8813 40.4294 29.5366 40.0464L28.5095 39.7086C27.2806 39.3046 26.1343 38.9277 25.1436 38.541L23.517 37.9249C22.8457 37.6168 22.1478 37.3704 21.432 37.1885C21.432 37.1885 21.5145 37.2157 21.6309 37.3251C21.9216 37.4918 22.4998 37.7733 23.3837 38.1757C25.0041 38.9122 26.6686 39.5477 28.3675 40.0786C29.8742 40.5523 31.4268 40.8652 32.9994 41.0121L33.6437 41.0614C33.9347 41.0499 34.218 40.9648 34.467 40.8138C34.4097 40.988 34.3554 41.1531 34.2981 41.3274C33.954 42.9676 33.799 44.642 33.8362 46.3175C33.8407 46.6747 33.8574 47.0257 33.8923 47.3522C33.9272 47.6787 33.9402 47.8557 33.9687 48.109C34.153 49.8722 34.556 51.6056 35.1682 53.2694C35.3102 53.6718 35.4675 54.0589 35.637 54.4398C36.3635 56.1192 37.3026 57.6985 38.4312 59.1388C38.689 59.4674 38.9498 59.7869 39.2258 60.0911C40.4346 61.4722 41.8166 62.6917 43.3375 63.7193L43.0301 63.9434C42.6192 64.2656 42.0594 64.7319 41.4542 65.2748C40.6997 65.8664 40.0306 66.5595 39.466 67.3344C40.2906 66.8433 41.0494 66.2493 41.724 65.5667C42.3456 65.0195 42.9392 64.4414 43.5028 63.8346C43.9956 64.1593 44.5037 64.4686 45.0177 64.7595C44.5526 65.2468 43.2407 66.919 41.6367 68.8611C40.1788 70.6682 38.9151 72.1936 38.4233 72.8856C38.2624 73.0969 38.1775 73.2315 38.202 73.2498C38.6364 72.9213 39.0304 72.5426 39.3757 72.1215C40.0716 71.3341 40.9773 70.3413 41.9309 69.1407C42.8846 67.9401 43.6561 66.9845 44.19 66.1641C44.2312 66.1149 44.2687 66.0627 44.3024 66.008C44.6818 65.4722 44.9518 65.0529 45.076 64.8295L45.1585 64.8566C46.4629 65.5673 47.8384 66.1388 49.2624 66.5616C49.3612 66.6964 49.4505 66.8378 49.5297 66.9849C49.7681 67.4412 49.9114 67.9412 49.9509 68.4546C49.9944 69.2518 49.8773 70.0496 49.6064 70.8006C49.3259 71.6534 48.9299 72.6106 48.5431 73.5707C47.736 75.5309 46.9219 77.2652 46.3165 78.5193C45.9473 79.3023 45.6535 79.8866 45.4992 80.2322L45.6276 80.2744C45.8339 79.9561 46.1493 79.4297 46.5583 78.6801C47.4261 77.0792 48.2081 75.4333 48.901 73.7494C49.2969 72.7617 49.6747 71.8291 49.9488 70.9335C50.1517 70.2849 50.2539 69.6091 50.252 68.9296C50.2483 68.7694 50.2364 68.6095 50.2165 68.4505C50.148 67.9332 49.9633 67.4382 49.6763 67.0026L49.5872 66.8717C49.5075 66.7743 49.4522 66.6952 49.3909 66.6344C51.6111 67.2769 53.9199 67.5591 56.2295 67.4703L56.9742 67.4307L57.435 67.3891C57.8199 67.5856 58.1331 67.8983 58.3301 68.2829C58.6154 69.011 58.7059 69.8008 58.5929 70.5745C58.5326 71.4998 58.4603 72.4922 58.3853 73.5549C58.2626 75.6588 58.1696 77.5488 58.1203 78.935C58.0553 79.6796 58.0574 80.4285 58.1264 81.1727C58.2864 80.4437 58.3774 79.7013 58.3982 78.9552L58.5291 77.3825C58.6131 76.2618 58.7024 74.9701 58.7639 73.5778C58.8237 72.5304 58.8776 71.5319 58.9348 70.5853C59.0251 69.7964 58.9136 68.9975 58.6109 68.2635L58.5615 68.1355C58.3776 67.8162 58.1161 67.5485 57.8012 67.357L58.2345 67.3064C61.7533 66.8536 65.1062 65.5408 67.997 63.4841C68.3958 63.1985 68.7762 62.907 69.1504 62.6032C70.5012 61.4899 71.7164 60.2215 72.7708 58.8243C73.0441 58.4568 73.3112 58.0772 73.5691 57.6945C73.8539 57.9101 74.5029 58.3471 75.3997 58.9265C76.6761 59.7425 78.4481 60.8434 80.4099 62.0473C81.934 62.9752 83.354 63.8181 84.5199 64.5063L85.4746 65.0641L85.903 65.3066C85.9271 65.2332 86.0338 65.187 86.1038 65.1287L85.6171 64.8163C84.464 64.2745 82.6919 63.1736 80.7271 61.9789ZM56.9492 65.0343C53.2035 65.3013 49.4628 64.4518 46.1999 62.5932C42.9371 60.7345 40.2985 57.9501 38.6179 54.592C36.9373 51.234 36.29 47.453 36.758 43.7272C37.2259 40.0013 38.7881 36.4978 41.247 33.6597C43.7058 30.8215 46.951 28.7761 50.5722 27.7821C54.1933 26.788 58.028 26.89 61.5912 28.075C65.1545 29.26 68.2864 31.4749 70.591 34.4397C72.8956 37.4045 74.2694 40.986 74.5388 44.7315C74.7177 47.2197 74.4046 49.7188 73.6174 52.0859C72.8301 54.4531 71.5841 56.6419 69.9507 58.5274C68.3172 60.4129 66.3282 61.958 64.0973 63.0744C61.8665 64.1909 59.4375 64.8569 56.9492 65.0343Z" fill="#2251FF"/>
<path d="M78.498 67.7691C77.8631 66.8667 77.1724 66.0049 76.4299 65.1888C75.7909 64.286 75.0972 63.4233 74.3526 62.6055C74.7723 63.6425 75.3692 64.5987 76.1164 65.4313C76.7667 66.3445 77.5729 67.1358 78.498 67.7691Z" fill="#2251FF"/>
<path d="M74.0605 68.8123L73.9961 68.7302L72.2606 66.1271C71.8266 65.3807 71.2755 64.7089 70.6283 64.1373L70.4816 64.089C70.2437 63.9386 69.9697 63.8547 69.6883 63.8462C69.4069 63.8377 69.1284 63.9048 68.8817 64.0406C68.7805 64.0886 68.6922 64.16 68.624 64.249C68.5559 64.3379 68.51 64.4418 68.49 64.552C68.5359 64.5671 68.6113 64.3379 68.9586 64.1777C69.2032 64.0715 69.4728 64.0363 69.7365 64.0763C70.0001 64.1163 70.2472 64.2297 70.4493 64.4036C71.0409 64.9831 71.5454 65.6453 71.9471 66.3696L73.6643 68.9666C74.905 70.7871 76.0413 72.4309 76.8765 73.5998L77.2203 74.0685C77.2463 73.9587 77.2816 73.8514 77.3258 73.7475L77.1292 73.4492C76.3519 72.2282 75.2706 70.6024 74.0605 68.8123Z" fill="#2251FF"/>
<path d="M66.2217 72.8386L67.796 77.0756C67.9808 77.6743 68.2224 78.2539 68.5174 78.8066C68.4455 78.188 68.3048 77.5793 68.0979 76.9919C67.8534 76.19 67.5165 75.1748 67.1242 74.05L66.6303 72.7087C66.013 71.0628 65.4025 69.5816 64.9555 68.5302C64.7356 67.9425 64.454 67.3798 64.1152 66.8516C64.1152 66.8516 64.125 67.0072 64.2054 67.2572C64.2858 67.5072 64.4681 68.0346 64.6965 68.6381L66.2217 72.8386Z" fill="#2251FF"/>
<path d="M61.2734 71.3867C61.2759 72.8164 61.4198 74.2423 61.703 75.6436C61.9553 74.2122 61.8066 72.7389 61.2734 71.3867Z" fill="#2251FF"/>
<path d="M38.6619 60.2907C38.456 59.9588 38.1936 59.9843 38.2089 59.9995C38.2242 60.0147 38.4107 60.0658 38.5279 60.3584C38.5903 60.5283 38.6038 60.7123 38.5667 60.8895C38.4902 61.1236 38.348 61.3309 38.157 61.4864C37.2502 62.2045 35.8804 63.1565 34.4439 64.2491C33.8109 64.7219 33.2265 65.17 32.6696 65.5966L30.7647 67.0941C30.2379 67.4665 29.7552 67.8976 29.326 68.3791C29.8969 68.0797 30.4382 67.7269 30.9427 67.3254C31.9229 66.6315 33.2469 65.6644 34.7017 64.5778C36.1565 63.4912 37.4193 62.4938 38.3655 61.7176C38.5434 61.548 38.6759 61.3365 38.7507 61.1024L38.7929 60.974C38.8357 60.7379 38.789 60.4943 38.6619 60.2907Z" fill="#2251FF"/>
</svg>
